<?xml version="1.0" standalone="no"?>
<!DOCTYPE svg PUBLIC "-//W3C//DTD SVG 20010904//EN"
 "http://www.w3.org/TR/2001/REC-SVG-20010904/DTD/svg10.dtd">
<svg version="1.0" xmlns="http://www.w3.org/2000/svg"
 width="881.000000pt" height="610.000000pt" viewBox="0 0 881.000000 610.000000"
 preserveAspectRatio="xMidYMid meet">

<g transform="translate(0.000000,610.000000) scale(0.100000,-0.100000)"
fill="#000000" stroke="none">
<path d="M1730 3210 l0 -1720 1720 0 1720 0 0 405 0 405 -70 0 -70 0 0 -335 0
-335 -1580 0 -1580 0 0 1580 0 1580 1580 0 1580 0 0 -335 0 -335 70 0 70 0 0
405 0 405 -1720 0 -1720 0 0 -1720z"/>
<path d="M2777 3975 c-9 -20 -17 -37 -17 -38 0 -2 47 -18 105 -37 l105 -34 0
-606 0 -607 -95 -74 c-84 -66 -94 -78 -95 -106 l0 -33 603 0 c495 0 610 -3
650 -15 l47 -14 2 182 c2 160 -1 349 -5 354 -1 1 -14 4 -28 8 -24 6 -34 -6
-169 -209 l-143 -216 -264 0 -263 0 0 638 0 638 95 73 c80 63 95 79 95 103 l0
28 -303 0 -303 0 -17 -35z"/>
<path d="M4868 3509 c-216 -51 -430 -253 -482 -455 -53 -205 34 -446 199 -554
105 -68 192 -86 347 -71 l86 8 169 133 c92 73 172 136 177 141 4 4 -4 23 -20
42 l-27 35 -62 -47 c-81 -62 -172 -117 -225 -136 -131 -46 -274 15 -340 144
-30 61 -60 162 -60 205 l0 26 370 0 370 0 0 28 c0 53 -28 198 -50 254 -62 165
-190 259 -348 257 -37 -1 -84 -5 -104 -10z m64 -159 c21 -6 51 -22 68 -37 48
-40 65 -81 96 -230 l4 -23 -236 0 -237 0 6 64 c7 71 40 147 80 184 47 44 145
62 219 42z"/>
<path d="M6158 3509 c-217 -51 -430 -252 -482 -455 -52 -200 32 -440 190 -549
101 -70 200 -91 355 -76 l87 8 173 137 c96 76 174 141 174 145 0 3 -11 21 -25
38 l-25 31 -82 -62 c-207 -156 -351 -176 -476 -66 -66 58 -127 200 -127 295
l0 25 370 0 c289 0 370 3 370 13 0 6 -5 52 -11 102 -33 266 -179 427 -387 424
-37 -1 -84 -5 -104 -10z m64 -159 c21 -6 51 -22 68 -37 48 -40 65 -81 96 -230
l4 -23 -236 0 -237 0 6 63 c17 178 140 271 299 227z"/>
</g>
</svg>
